<svg width="2079" height="541" viewBox="0 0 2079 541" fill="none" xmlns="http://www.w3.org/2000/svg">
<path d="M359.465 247.2C372.265 247.2 382.532 251.467 390.265 260C397.998 268.4 401.865 280 401.865 294.8V360H367.865V299.4C367.865 291.933 365.932 286.133 362.065 282C358.198 277.867 352.998 275.8 346.465 275.8C339.932 275.8 334.732 277.867 330.865 282C326.998 286.133 325.065 291.933 325.065 299.4V360H290.865V212H325.065V263.4C328.532 258.467 333.265 254.533 339.265 251.6C345.265 248.667 351.998 247.2 359.465 247.2ZM476.43 361.6C465.497 361.6 455.63 359.267 446.83 354.6C438.164 349.933 431.297 343.267 426.23 334.6C421.297 325.933 418.83 315.8 418.83 304.2C418.83 292.733 421.364 282.667 426.43 274C431.497 265.2 438.43 258.467 447.23 253.8C456.03 249.133 465.897 246.8 476.83 246.8C487.764 246.8 497.63 249.133 506.43 253.8C515.23 258.467 522.164 265.2 527.23 274C532.297 282.667 534.83 292.733 534.83 304.2C534.83 315.667 532.23 325.8 527.03 334.6C521.964 343.267 514.964 349.933 506.03 354.6C497.23 359.267 487.364 361.6 476.43 361.6ZM476.43 332C482.964 332 488.497 329.6 493.03 324.8C497.697 320 500.03 313.133 500.03 304.2C500.03 295.267 497.764 288.4 493.23 283.6C488.83 278.8 483.364 276.4 476.83 276.4C470.164 276.4 464.63 278.8 460.23 283.6C455.83 288.267 453.63 295.133 453.63 304.2C453.63 313.133 455.764 320 460.03 324.8C464.43 329.6 469.897 332 476.43 332ZM695.374 247.2C709.241 247.2 720.241 251.4 728.374 259.8C736.641 268.2 740.774 279.867 740.774 294.8V360H706.774V299.4C706.774 292.2 704.841 286.667 700.974 282.8C697.241 278.8 692.041 276.8 685.374 276.8C678.708 276.8 673.441 278.8 669.574 282.8C665.841 286.667 663.974 292.2 663.974 299.4V360H629.974V299.4C629.974 292.2 628.041 286.667 624.174 282.8C620.441 278.8 615.241 276.8 608.574 276.8C601.908 276.8 596.641 278.8 592.774 282.8C589.041 286.667 587.174 292.2 587.174 299.4V360H552.974V248.4H587.174V262.4C590.641 257.733 595.174 254.067 600.774 251.4C606.374 248.6 612.708 247.2 619.774 247.2C628.174 247.2 635.641 249 642.174 252.6C648.841 256.2 654.041 261.333 657.774 268C661.641 261.867 666.908 256.867 673.574 253C680.241 249.133 687.508 247.2 695.374 247.2ZM869.893 302.4C869.893 305.6 869.693 308.933 869.293 312.4H791.893C792.426 319.333 794.626 324.667 798.493 328.4C802.493 332 807.36 333.8 813.093 333.8C821.626 333.8 827.56 330.2 830.893 323H867.293C865.426 330.333 862.026 336.933 857.093 342.8C852.293 348.667 846.226 353.267 838.893 356.6C831.56 359.933 823.36 361.6 814.293 361.6C803.36 361.6 793.626 359.267 785.093 354.6C776.56 349.933 769.893 343.267 765.093 334.6C760.293 325.933 757.893 315.8 757.893 304.2C757.893 292.6 760.226 282.467 764.893 273.8C769.693 265.133 776.36 258.467 784.893 253.8C793.426 249.133 803.226 246.8 814.293 246.8C825.093 246.8 834.693 249.067 843.093 253.6C851.493 258.133 858.026 264.6 862.693 273C867.493 281.4 869.893 291.2 869.893 302.4ZM834.893 293.4C834.893 287.533 832.893 282.867 828.893 279.4C824.893 275.933 819.893 274.2 813.893 274.2C808.16 274.2 803.293 275.867 799.293 279.2C795.426 282.533 793.026 287.267 792.093 293.4H834.893ZM881.135 304.2C881.135 292.6 883.468 282.467 888.135 273.8C892.935 265.133 899.535 258.467 907.935 253.8C916.468 249.133 926.202 246.8 937.135 246.8C951.135 246.8 962.802 250.467 972.135 257.8C981.602 265.133 987.802 275.467 990.735 288.8H954.335C951.268 280.267 945.335 276 936.535 276C930.268 276 925.268 278.467 921.535 283.4C917.802 288.2 915.935 295.133 915.935 304.2C915.935 313.267 917.802 320.267 921.535 325.2C925.268 330 930.268 332.4 936.535 332.4C945.335 332.4 951.268 328.133 954.335 319.6H990.735C987.802 332.667 981.602 342.933 972.135 350.4C962.668 357.867 951.002 361.6 937.135 361.6C926.202 361.6 916.468 359.267 907.935 354.6C899.535 349.933 892.935 343.267 888.135 334.6C883.468 325.933 881.135 315.8 881.135 304.2ZM1002.23 304.2C1002.23 292.6 1004.56 282.467 1009.23 273.8C1014.03 265.133 1020.63 258.467 1029.03 253.8C1037.56 249.133 1047.3 246.8 1058.23 246.8C1072.23 246.8 1083.9 250.467 1093.23 257.8C1102.7 265.133 1108.9 275.467 1111.83 288.8H1075.43C1072.36 280.267 1066.43 276 1057.63 276C1051.36 276 1046.36 278.467 1042.63 283.4C1038.9 288.2 1037.03 295.133 1037.03 304.2C1037.03 313.267 1038.9 320.267 1042.63 325.2C1046.36 330 1051.36 332.4 1057.63 332.4C1066.43 332.4 1072.36 328.133 1075.43 319.6H1111.83C1108.9 332.667 1102.7 342.933 1093.23 350.4C1083.76 357.867 1072.1 361.6 1058.23 361.6C1047.3 361.6 1037.56 359.267 1029.03 354.6C1020.63 349.933 1014.03 343.267 1009.23 334.6C1004.56 325.933 1002.23 315.8 1002.23 304.2ZM1235.32 302.4C1235.32 305.6 1235.12 308.933 1234.72 312.4H1157.32C1157.86 319.333 1160.06 324.667 1163.92 328.4C1167.92 332 1172.79 333.8 1178.52 333.8C1187.06 333.8 1192.99 330.2 1196.32 323H1232.72C1230.86 330.333 1227.46 336.933 1222.52 342.8C1217.72 348.667 1211.66 353.267 1204.32 356.6C1196.99 359.933 1188.79 361.6 1179.72 361.6C1168.79 361.6 1159.06 359.267 1150.52 354.6C1141.99 349.933 1135.32 343.267 1130.52 334.6C1125.72 325.933 1123.32 315.8 1123.32 304.2C1123.32 292.6 1125.66 282.467 1130.32 273.8C1135.12 265.133 1141.79 258.467 1150.32 253.8C1158.86 249.133 1168.66 246.8 1179.72 246.8C1190.52 246.8 1200.12 249.067 1208.52 253.6C1216.92 258.133 1223.46 264.6 1228.12 273C1232.92 281.4 1235.32 291.2 1235.32 302.4ZM1200.32 293.4C1200.32 287.533 1198.32 282.867 1194.32 279.4C1190.32 275.933 1185.32 274.2 1179.32 274.2C1173.59 274.2 1168.72 275.867 1164.72 279.2C1160.86 282.533 1158.46 287.267 1157.52 293.4H1200.32ZM1321.36 247.2C1334.43 247.2 1344.83 251.467 1352.56 260C1360.43 268.4 1364.36 280 1364.36 294.8V360H1330.36V299.4C1330.36 291.933 1328.43 286.133 1324.56 282C1320.7 277.867 1315.5 275.8 1308.96 275.8C1302.43 275.8 1297.23 277.867 1293.36 282C1289.5 286.133 1287.56 291.933 1287.56 299.4V360H1253.36V248.4H1287.56V263.2C1291.03 258.267 1295.7 254.4 1301.56 251.6C1307.43 248.667 1314.03 247.2 1321.36 247.2ZM1450.33 331V360H1432.93C1420.53 360 1410.86 357 1403.93 351C1397 344.867 1393.53 334.933 1393.53 321.2V276.8H1379.93V248.4H1393.53V221.2H1427.73V248.4H1450.13V276.8H1427.73V321.6C1427.73 324.933 1428.53 327.333 1430.13 328.8C1431.73 330.267 1434.4 331 1438.13 331H1450.33ZM1579.58 248.4V360H1545.38V344.8C1541.91 349.733 1537.18 353.733 1531.18 356.8C1525.31 359.733 1518.78 361.2 1511.58 361.2C1503.05 361.2 1495.51 359.333 1488.98 355.6C1482.45 351.733 1477.38 346.2 1473.78 339C1470.18 331.8 1468.38 323.333 1468.38 313.6V248.4H1502.38V309C1502.38 316.467 1504.31 322.267 1508.18 326.4C1512.05 330.533 1517.25 332.6 1523.78 332.6C1530.45 332.6 1535.71 330.533 1539.58 326.4C1543.45 322.267 1545.38 316.467 1545.38 309V248.4H1579.58ZM1638.35 267C1642.35 260.867 1647.35 256.067 1653.35 252.6C1659.35 249 1666.01 247.2 1673.35 247.2V283.4H1663.95C1655.41 283.4 1649.01 285.267 1644.75 289C1640.48 292.6 1638.35 299 1638.35 308.2V360H1604.15V248.4H1638.35V267ZM1794.89 302.4C1794.89 305.6 1794.69 308.933 1794.29 312.4H1716.89C1717.43 319.333 1719.63 324.667 1723.49 328.4C1727.49 332 1732.36 333.8 1738.09 333.8C1746.63 333.8 1752.56 330.2 1755.89 323H1792.29C1790.43 330.333 1787.03 336.933 1782.09 342.8C1777.29 348.667 1771.23 353.267 1763.89 356.6C1756.56 359.933 1748.36 361.6 1739.29 361.6C1728.36 361.6 1718.63 359.267 1710.09 354.6C1701.56 349.933 1694.89 343.267 1690.09 334.6C1685.29 325.933 1682.89 315.8 1682.89 304.2C1682.89 292.6 1685.23 282.467 1689.89 273.8C1694.69 265.133 1701.36 258.467 1709.89 253.8C1718.43 249.133 1728.23 246.8 1739.29 246.8C1750.09 246.8 1759.69 249.067 1768.09 253.6C1776.49 258.133 1783.03 264.6 1787.69 273C1792.49 281.4 1794.89 291.2 1794.89 302.4ZM1759.89 293.4C1759.89 287.533 1757.89 282.867 1753.89 279.4C1749.89 275.933 1744.89 274.2 1738.89 274.2C1733.16 274.2 1728.29 275.867 1724.29 279.2C1720.43 282.533 1718.03 287.267 1717.09 293.4H1759.89Z" fill="black"/>
<path d="M1464.14 121.03V161.97L1346.84 204.52V165.42L1416.53 141.5L1346.84 117.58V78.48L1464.14 121.03Z" fill="#9EB173"/>
</svg>
